<svg xmlns="http://www.w3.org/2000/svg" width="237" height="39" viewBox="0 0 237 39">
  <g id="_4_stars" data-name="4_stars" transform="translate(-217 -7193.5)">
    <path id="Polygon_1" data-name="Polygon 1" d="M20.5,0l6.15,13.092L41,14.9l-10.549,9.9L33.17,39,20.5,32.023,7.83,39l2.719-14.208L0,14.9l14.35-1.8Z" transform="translate(217 7193.5)" fill="#35436a"/>
    <path id="Polygon_2" data-name="Polygon 2" d="M20.5,0l6.15,13.092L41,14.9l-10.549,9.9L33.17,39,20.5,32.023,7.83,39l2.719-14.208L0,14.9l14.35-1.8Z" transform="translate(266 7193.5)" fill="#35436a"/>
    <path id="Polygon_3" data-name="Polygon 3" d="M20.5,0l6.15,13.092L41,14.9l-10.549,9.9L33.17,39,20.5,32.023,7.83,39l2.719-14.208L0,14.9l14.35-1.8Z" transform="translate(315 7193.5)" fill="#35436a"/>
    <path id="Polygon_4" data-name="Polygon 4" d="M20.5,0l6.15,13.092L41,14.9l-10.549,9.9L33.17,39,20.5,32.023,7.83,39l2.719-14.208L0,14.9l14.35-1.8Z" transform="translate(364 7193.5)" fill="#35436a"/>
    <path id="Polygon_5" data-name="Polygon 5" d="M20.5,0l6.15,13.092L41,14.9l-10.549,9.9L33.17,39,20.5,32.023,7.83,39l2.719-14.208L0,14.9l14.35-1.8Z" transform="translate(413 7193.5)" fill="#fff"/>
  </g>
</svg>
