<svg xmlns="http://www.w3.org/2000/svg" width="237" height="39" viewBox="0 0 237 39">
  <g id="Group_158" data-name="Group 158" transform="translate(-772 -7193.5)">
    <path id="Polygon_6" data-name="Polygon 6" d="M20.5,0l6.15,13.092L41,14.9l-10.549,9.9L33.17,39,20.5,32.023,7.83,39l2.719-14.208L0,14.9l14.35-1.8Z" transform="translate(772 7193.5)" fill="#35436a"/>
    <path id="Polygon_7" data-name="Polygon 7" d="M20.5,0l6.15,13.092L41,14.9l-10.549,9.9L33.17,39,20.5,32.023,7.83,39l2.719-14.208L0,14.9l14.35-1.8Z" transform="translate(821 7193.5)" fill="#35436a"/>
    <path id="Polygon_8" data-name="Polygon 8" d="M20.5,0l6.15,13.092L41,14.9l-10.549,9.9L33.17,39,20.5,32.023,7.83,39l2.719-14.208L0,14.9l14.35-1.8Z" transform="translate(870 7193.5)" fill="#35436a"/>
    <path id="Polygon_9" data-name="Polygon 9" d="M20.5,0l6.15,13.092L41,14.9l-10.549,9.9L33.17,39,20.5,32.023,7.83,39l2.719-14.208L0,14.9l14.35-1.8Z" transform="translate(919 7193.5)" fill="#35436a"/>
    <path id="Polygon_10" data-name="Polygon 10" d="M20.5,0l6.15,13.092L41,14.9l-10.549,9.9L33.17,39,20.5,32.023,7.83,39l2.719-14.208L0,14.9l14.35-1.8Z" transform="translate(968 7193.5)" fill="#35436a"/>
  </g>
</svg>
