<svg xmlns="http://www.w3.org/2000/svg" width="108" height="108" viewBox="0 0 108 108">
  <g id="asseble_icon" transform="translate(-3332 -6584)">
    <circle id="Ellipse_1" data-name="Ellipse 1" cx="54" cy="54" r="54" transform="translate(3332 6584)" fill="#3e3e3e"/>
    <g id="Ellipse_37" data-name="Ellipse 37" transform="translate(3335 6587)" fill="none" stroke="#fff" stroke-width="3.5">
      <circle cx="51.5" cy="51.5" r="51.5" stroke="none"/>
      <circle cx="51.5" cy="51.5" r="49.75" fill="none"/>
    </g>
    <g id="timing-belt" transform="translate(3350 6601.801)">
      <path id="Path_147" data-name="Path 147" d="M92.053,104.047a8.553,8.553,0,1,0,.577-14.816,1.081,1.081,0,0,0,1,1.914,6.407,6.407,0,0,1,9.04,3.609,6.343,6.343,0,0,1-.512,5.247,6.4,6.4,0,0,1-11.191-6.214,1.081,1.081,0,0,0-1.9-1.022,8.542,8.542,0,0,0,2.986,11.282Z" transform="translate(-75.364 -75.365)" fill="#fff"/>
      <path id="Path_148" data-name="Path 148" d="M72.354,58.459a1.579,1.579,0,0,0-.893-.826l-1.675-.619a15,15,0,0,0-.212-5.431l1.623-.747a1.589,1.589,0,0,0,.779-2.108l-1.358-2.949A1.591,1.591,0,0,0,68.51,45l-1.623.747A15,15,0,0,0,62.9,42.055l.619-1.675a1.591,1.591,0,0,0-.94-2.041l-3.045-1.125a1.591,1.591,0,0,0-2.042.94l-.408,1.1L40.364,20.57l.665-.159A1.913,1.913,0,0,0,42.444,18.1l-.789-3.291A1.915,1.915,0,0,0,39.348,13.4l-1.989.477a17.616,17.616,0,0,0-3.927-5.4L34.5,6.727A1.912,1.912,0,0,0,33.872,4.1L30.986,2.327a1.915,1.915,0,0,0-2.63.631L27.285,4.7a17.6,17.6,0,0,0-6.6-1.048l-.477-1.989A1.913,1.913,0,0,0,17.905.253l-3.291.789A1.913,1.913,0,0,0,13.2,3.348l.477,1.989a17.613,17.613,0,0,0-5.4,3.927L6.528,8.194A1.913,1.913,0,0,0,3.9,8.824L2.128,11.71a1.913,1.913,0,0,0,.631,2.631L4.5,15.411a17.606,17.606,0,0,0-1.048,6.6l-1.989.477A1.915,1.915,0,0,0,.053,24.791l.789,3.291A1.913,1.913,0,0,0,3.149,29.5l1.989-.477a17.613,17.613,0,0,0,3.927,5.4l-1.07,1.746A1.913,1.913,0,0,0,8.625,38.8l2.885,1.769a1.909,1.909,0,0,0,1.73.134L39,58.587l-.723.333a1.589,1.589,0,0,0-.779,2.108l1.358,2.949a1.592,1.592,0,0,0,2.108.779l1.623-.747A15.009,15.009,0,0,0,46.573,67.7l-.619,1.675a1.591,1.591,0,0,0,.94,2.041l3.046,1.125a1.589,1.589,0,0,0,2.041-.94l.619-1.675a15,15,0,0,0,5.431-.212l.747,1.623a1.589,1.589,0,0,0,2.108.779l2.949-1.358a1.591,1.591,0,0,0,.779-2.108l-.747-1.623a15.006,15.006,0,0,0,3.693-3.988l1.675.619a1.589,1.589,0,0,0,2.042-.94L72.4,59.675a1.582,1.582,0,0,0-.047-1.216ZM44.857,41.1l.747,1.623a15,15,0,0,0-3.693,3.988L40.238,46.1a1.589,1.589,0,0,0-2.041.94l-1.125,3.045a1.591,1.591,0,0,0,.94,2.041l1.675.619a14.98,14.98,0,0,0-.074,3.64L14.674,39.067l.537-.876a17.6,17.6,0,0,0,6.6,1.048l.477,1.989a1.912,1.912,0,0,0,2.306,1.414l3.291-.789A1.915,1.915,0,0,0,29.3,39.547l-.477-1.989a17.616,17.616,0,0,0,5.4-3.927l1.746,1.07a1.915,1.915,0,0,0,2.631-.631l1.769-2.885a1.915,1.915,0,0,0-.631-2.631l-1.746-1.07a17.622,17.622,0,0,0,1.036-5.166L54.56,39.679a15.065,15.065,0,0,0-3.119.361l-.747-1.623a1.591,1.591,0,0,0-2.108-.779L45.637,39A1.591,1.591,0,0,0,44.857,41.1ZM12.428,38.6l-2.462-1.51,1.048-1.709a1.919,1.919,0,0,0-.342-2.412A15.473,15.473,0,0,1,7.02,27.941,1.918,1.918,0,0,0,4.833,26.87l-1.947.467-.674-2.809,1.947-.467a1.918,1.918,0,0,0,1.464-1.947A15.467,15.467,0,0,1,6.6,15.98a1.918,1.918,0,0,0-.789-2.305L4.1,12.628l1.509-2.462,1.709,1.048a1.919,1.919,0,0,0,2.412-.342A15.473,15.473,0,0,1,14.754,7.22a1.917,1.917,0,0,0,1.072-2.188l-.467-1.947,2.808-.674.467,1.947a1.92,1.92,0,0,0,1.947,1.464,15.466,15.466,0,0,1,6.133.975,1.919,1.919,0,0,0,2.305-.789L30.068,4.3l2.462,1.51L31.482,7.517a1.919,1.919,0,0,0,.342,2.412,15.472,15.472,0,0,1,3.651,5.024,1.917,1.917,0,0,0,2.188,1.072l1.947-.467.674,2.809-1.947.467a1.918,1.918,0,0,0-1.464,1.947,15.47,15.47,0,0,1-.975,6.133,1.918,1.918,0,0,0,.789,2.306L38.4,30.267l-1.51,2.462-1.708-1.048a1.918,1.918,0,0,0-2.413.342,15.471,15.471,0,0,1-5.024,3.651,1.917,1.917,0,0,0-1.072,2.188l.467,1.947-2.808.674-.467-1.947A1.917,1.917,0,0,0,22,37.071l-.085,0a15.484,15.484,0,0,1-6.133-.975,1.919,1.919,0,0,0-2.305.789ZM69.447,61.435l-1.579-.583a1.585,1.585,0,0,0-1.915.677,12.887,12.887,0,0,1-3.718,4.015,1.585,1.585,0,0,0-.527,1.963l.7,1.531-1.91.88-.7-1.531a1.586,1.586,0,0,0-1.834-.876,12.884,12.884,0,0,1-5.468.214,1.584,1.584,0,0,0-1.76,1.015l-.583,1.579-1.973-.729.583-1.579a1.585,1.585,0,0,0-.677-1.916,12.887,12.887,0,0,1-4.015-3.718,1.585,1.585,0,0,0-1.963-.527l-1.531.7-.879-1.91,1.531-.7a1.586,1.586,0,0,0,.876-1.834,12.882,12.882,0,0,1-.214-5.468,1.585,1.585,0,0,0-1.015-1.76L39.3,50.294l.729-1.973L41.6,48.9a1.585,1.585,0,0,0,1.915-.677,12.884,12.884,0,0,1,3.718-4.016,1.585,1.585,0,0,0,.527-1.962l-.7-1.531,1.91-.88.7,1.531a1.585,1.585,0,0,0,1.833.876,12.884,12.884,0,0,1,5.468-.214,1.585,1.585,0,0,0,1.76-1.015l.583-1.579,1.973.729-.583,1.579a1.585,1.585,0,0,0,.677,1.916A12.885,12.885,0,0,1,65.4,47.38a1.585,1.585,0,0,0,1.962.527l1.531-.7.879,1.91-1.531.7a1.585,1.585,0,0,0-.876,1.834,12.888,12.888,0,0,1,.214,5.468,1.585,1.585,0,0,0,1.015,1.76l1.579.583Z" transform="translate(0 0)" fill="#fff"/>
      <path id="Path_149" data-name="Path 149" d="M338.529,328.832a7.4,7.4,0,1,0,1.194,13.313,1.08,1.08,0,1,0-1.1-1.862,5.238,5.238,0,1,1,2.251-2.7,1.081,1.081,0,0,0,2.027.749,7.4,7.4,0,0,0-4.376-9.5Z" transform="translate(-281.229 -280.894)" fill="#fff"/>
    </g>
  </g>
</svg>
