<svg xmlns="http://www.w3.org/2000/svg" width="108" height="108" viewBox="0 0 108 108">
  <g id="build_muscle" transform="translate(-1008 -3366)">
    <circle id="Ellipse_1" data-name="Ellipse 1" cx="54" cy="54" r="54" transform="translate(1008 3366)" fill="#3e3e3e"/>
    <g id="_003-exercise" data-name="003-exercise" transform="translate(1025.5 3383.501)">
      <path id="Path_36" data-name="Path 36" d="M43.366,72H30.634a3.964,3.964,0,0,1-3.951-3.968V30.461H13.408a3.9,3.9,0,0,1-3.885-3.9V14.971a1,1,0,0,1,2,0V26.56a1.9,1.9,0,0,0,1.885,1.9H27.683a1,1,0,0,1,1,1V68.032A1.962,1.962,0,0,0,30.634,70H43.366a1.962,1.962,0,0,0,1.951-1.968V29.461a1,1,0,0,1,1-1H60.592a1.9,1.9,0,0,0,1.885-1.9v-11.6a1,1,0,0,1,2,0v11.6a3.9,3.9,0,0,1-3.885,3.9H47.317V68.032A3.964,3.964,0,0,1,43.366,72Z" fill="#fff" stroke="#fff" stroke-width="0.5"/>
      <path id="Path_37" data-name="Path 37" d="M37,30.788a1,1,0,0,1-.844-.463l-4.13-6.5H17.553a1.408,1.408,0,0,1-1.4-1.415V15.436a1,1,0,0,1,2,0V21.83h14.42a1,1,0,0,1,.844.463L37,27.924l3.581-5.631a1,1,0,0,1,.844-.463h14.42V15.436a1,1,0,1,1,2,0v6.979a1.408,1.408,0,0,1-1.4,1.415H41.974l-4.13,6.5a1,1,0,0,1-.844.458Z" fill="#fff" stroke="#fff" stroke-width="0.5"/>
      <path id="Path_38" data-name="Path 38" d="M37,71.992a1,1,0,0,1-1-1V52.133a1,1,0,1,1,2,0V70.992A1,1,0,0,1,37,71.992Z" fill="#fff" stroke="#fff" stroke-width="0.5"/>
      <path id="Path_39" data-name="Path 39" d="M37,30.788a1,1,0,0,1-.844-.463l-4.425-6.959a1,1,0,0,1,1.688-1.073L37,27.924l3.581-5.631a1,1,0,1,1,1.688,1.073l-4.425,6.959A1,1,0,0,1,37,30.788Z" fill="#fff" stroke="#fff" stroke-width="0.5"/>
      <path id="Path_40" data-name="Path 40" d="M37,19.7a8.851,8.851,0,1,1,8.851-8.851A8.851,8.851,0,0,1,37,19.7ZM37,4a6.851,6.851,0,1,0,6.851,6.851A6.851,6.851,0,0,0,37,4Z" fill="#fff" stroke="#fff" stroke-width="0.5"/>
      <path id="Path_41" data-name="Path 41" d="M14,17.928a5.057,5.057,0,1,1,5.057-5.057A5.057,5.057,0,0,1,14,17.928Zm0-8.114a3.057,3.057,0,1,0,3.057,3.057A3.057,3.057,0,0,0,14,9.814Z" fill="#fff" stroke="#fff" stroke-width="0.5"/>
      <path id="Path_42" data-name="Path 42" d="M60,17.928a5.057,5.057,0,1,1,5.057-5.057A5.057,5.057,0,0,1,60,17.928Zm0-8.114a3.057,3.057,0,1,0,3.057,3.057A3.057,3.057,0,0,0,60,9.814Z" fill="#fff" stroke="#fff" stroke-width="0.5"/>
    </g>
    <g id="Ellipse_37" data-name="Ellipse 37" transform="translate(1011 3369)" fill="none" stroke="#fff" stroke-width="3.5">
      <circle cx="51.5" cy="51.5" r="51.5" stroke="none"/>
      <circle cx="51.5" cy="51.5" r="49.75" fill="none"/>
    </g>
  </g>
</svg>
