<svg xmlns="http://www.w3.org/2000/svg" width="103" height="103" viewBox="0 0 103 103">
  <g id="Group_126" data-name="Group 126" transform="translate(-4042 952)">
    <g id="_012-facebook" data-name="012-facebook" transform="translate(4065 -929)">
      <g id="Group_116" data-name="Group 116" transform="translate(0 0)">
        <path id="Path_117" data-name="Path 117" d="M51.451-1H3.768A4.722,4.722,0,0,0-1,3.768V51.451a4.722,4.722,0,0,0,4.768,4.768H51.451a4.722,4.722,0,0,0,4.768-4.768V3.768A4.722,4.722,0,0,0,51.451-1ZM27.61,54.312V35.239H19.98V27.609H27.61V20.934a10.56,10.56,0,0,1,9.536-10.49h8.583v7.629H38.1a2.81,2.81,0,0,0-2.861,2.861v6.676h9.537v7.629H35.239V54.312H27.61Zm26.7-2.861a2.81,2.81,0,0,1-2.861,2.861h-14.3V37.146h9.536V25.7H37.146V20.934a.9.9,0,0,1,.954-.954h9.537V8.536H37.051A12.517,12.517,0,0,0,25.7,20.934V25.7H18.073V37.146H25.7V54.312H3.768A2.81,2.81,0,0,1,.907,51.451V3.768A2.81,2.81,0,0,1,3.768.907H51.451a2.81,2.81,0,0,1,2.861,2.861V51.451Z" transform="translate(1 1)" fill="#35436a" stroke="#35436a" stroke-width="1"/>
      </g>
    </g>
    <g id="Ellipse_67" data-name="Ellipse 67" transform="translate(4042 -952)" fill="none" stroke="#35436a" stroke-width="3.5">
      <circle cx="51.5" cy="51.5" r="51.5" stroke="none"/>
      <circle cx="51.5" cy="51.5" r="49.75" fill="none"/>
    </g>
  </g>
</svg>
