<svg xmlns="http://www.w3.org/2000/svg" width="103" height="103" viewBox="0 0 103 103">
  <g id="Group_129" data-name="Group 129" transform="translate(-3960 639)">
    <g id="_015-instagram" data-name="015-instagram" transform="translate(3981.295 -617.705)">
      <g id="Group_121" data-name="Group 121" transform="translate(0 0)">
        <g id="Group_120" data-name="Group 120">
          <path id="Path_121" data-name="Path 121" d="M42.194-1H16.217A17.274,17.274,0,0,0-1,16.217V42.194A17.274,17.274,0,0,0,16.217,59.411H42.194A17.274,17.274,0,0,0,59.411,42.194V16.217A17.274,17.274,0,0,0,42.194-1ZM57.4,42.194a15.255,15.255,0,0,1-15.2,15.2H16.217a15.255,15.255,0,0,1-15.2-15.2V16.217a15.255,15.255,0,0,1,15.2-15.2H42.194a15.255,15.255,0,0,1,15.2,15.2Z" transform="translate(1 1)" fill="#35436a" stroke="#35436a" stroke-width="1"/>
          <path id="Path_122" data-name="Path 122" d="M87.353,50.2H61.376A11.215,11.215,0,0,0,50.2,61.376V87.353A11.215,11.215,0,0,0,61.376,98.529H87.353A11.215,11.215,0,0,0,98.529,87.353V61.376A11.215,11.215,0,0,0,87.353,50.2Zm9.162,37.153a9.2,9.2,0,0,1-9.162,9.162H61.376a9.2,9.2,0,0,1-9.162-9.162V61.376a9.2,9.2,0,0,1,9.162-9.162H87.353a9.2,9.2,0,0,1,9.162,9.162Z" transform="translate(-44.159 -44.159)" fill="#35436a" stroke="#35436a" stroke-width="1"/>
          <path id="Path_123" data-name="Path 123" d="M134.577,118.467a16.109,16.109,0,1,0,16.109,16.109A16.157,16.157,0,0,0,134.577,118.467Zm0,30.205a14.1,14.1,0,1,1,14.1-14.1A14.137,14.137,0,0,1,134.577,148.672Z" transform="translate(-104.371 -104.371)" fill="#35436a" stroke="#35436a" stroke-width="1"/>
          <path id="Path_124" data-name="Path 124" d="M172.208,161.133a11.075,11.075,0,1,0,11.075,11.075A11.043,11.043,0,0,0,172.208,161.133Zm0,20.137a9.062,9.062,0,1,1,9.062-9.062A9.024,9.024,0,0,1,172.208,181.27Z" transform="translate(-142.003 -142.003)" fill="#35436a" stroke="#35436a" stroke-width="1"/>
          <path id="Path_125" data-name="Path 125" d="M368.953,92.867a3.021,3.021,0,1,0,3.021,3.021A2.967,2.967,0,0,0,368.953,92.867Z" transform="translate(-322.639 -81.792)" fill="#35436a" stroke="#35436a" stroke-width="1"/>
        </g>
      </g>
    </g>
    <g id="Ellipse_65" data-name="Ellipse 65" transform="translate(3960 -639)" fill="none" stroke="#35436a" stroke-width="3.5">
      <circle cx="51.5" cy="51.5" r="51.5" stroke="none"/>
      <circle cx="51.5" cy="51.5" r="49.75" fill="none"/>
    </g>
  </g>
</svg>
