<svg xmlns="http://www.w3.org/2000/svg" width="103" height="103" viewBox="0 0 103 103">
  <g id="linkedin_icon" transform="translate(-4190 639)">
    <g id="_016-linkedin" data-name="016-linkedin" transform="translate(4216 -613)">
      <g id="Group_123" data-name="Group 123" transform="translate(0 0)">
        <g id="Group_122" data-name="Group 122">
          <path id="Path_126" data-name="Path 126" d="M6.012,4.267A6.946,6.946,0,0,0-1,11.192a6.941,6.941,0,0,0,2.078,4.934,6.6,6.6,0,0,0,4.848,1.991H6.1a6.562,6.562,0,0,0,4.675-1.991,6.941,6.941,0,0,0,2.078-4.934A6.469,6.469,0,0,0,10.86,6.345,6.552,6.552,0,0,0,6.012,4.267ZM9.561,14.915a4.768,4.768,0,0,1-3.636,1.472A5.254,5.254,0,0,1,2.29,14.915,5.034,5.034,0,0,1,.731,11.193,5.174,5.174,0,0,1,6.012,6,5.051,5.051,0,0,1,9.561,7.47a5.175,5.175,0,0,1,1.558,3.722A5.034,5.034,0,0,1,9.561,14.915Z" transform="translate(1 -4.267)" fill="#35436a" stroke="#35436a" stroke-width="1"/>
          <path id="Path_127" data-name="Path 127" d="M17.056,157.867H10.044a2.532,2.532,0,0,0-2.511,2.6v30.3a2.663,2.663,0,0,0,2.6,2.6h6.926a2.648,2.648,0,0,0,2.6-2.511V160.464A2.663,2.663,0,0,0,17.056,157.867Zm.866,32.983a.854.854,0,0,1-.866.779H10.13a.931.931,0,0,1-.866-.866v-30.3a.854.854,0,0,1,.779-.866h7.012a.931.931,0,0,1,.866.866Z" transform="translate(-6.667 -142.285)" fill="#35436a" stroke="#35436a" stroke-width="1"/>
          <path id="Path_128" data-name="Path 128" d="M191.407,149.333H189.59a11.694,11.694,0,0,0-8.657,3.809V151.93A1.862,1.862,0,0,0,179.2,150.2h-8.657a1.778,1.778,0,0,0-1.731,1.645v32.29a1.7,1.7,0,0,0,1.731,1.558h9.523a1.7,1.7,0,0,0,1.731-1.558v-18.7a4.887,4.887,0,0,1,4.761-5.108A5.1,5.1,0,0,1,190.2,161.8a4.546,4.546,0,0,1,1.212,3.549V183.96a1.862,1.862,0,0,0,1.731,1.731H201.8a1.862,1.862,0,0,0,1.731-1.731V161.626A12.031,12.031,0,0,0,191.407,149.333ZM201.8,183.874l-.087.087h-8.484l-.087-18.612a6.375,6.375,0,0,0-1.645-4.761,6.809,6.809,0,0,0-4.848-1.991,6.675,6.675,0,0,0-6.493,6.839V183.96h-9.523V151.93h8.57l.087.087v5.454l2.337-2.337.087-.087a9.878,9.878,0,0,1,7.964-3.982h1.818a10.33,10.33,0,0,1,10.3,10.561Z" transform="translate(-151.586 -134.616)" fill="#35436a" stroke="#35436a" stroke-width="1"/>
        </g>
      </g>
    </g>
    <g id="Ellipse_62" data-name="Ellipse 62" transform="translate(4190 -639)" fill="none" stroke="#35436a" stroke-width="3.5">
      <circle cx="51.5" cy="51.5" r="51.5" stroke="none"/>
      <circle cx="51.5" cy="51.5" r="49.75" fill="none"/>
    </g>
  </g>
</svg>
