<svg xmlns="http://www.w3.org/2000/svg" width="67.184" height="68.23" viewBox="0 0 67.184 68.23">
  <g id="Logo-black" transform="translate(-0.051 0.001)">
    <g id="Group_10" data-name="Group 10" transform="translate(0.051 -0.001)">
      <path id="Path_1" data-name="Path 1" d="M98.357,158.183l-12.994-1.921c-8.5-1.275-17-2.53-25.493-3.836-4.755-.728-9.546-1.229-14.259-2.23a14.147,14.147,0,0,1-5.271-1.915c-.31-.212-.743-.439-.7-.841s.516-.377.831-.516c10.372-4.2,20.8-8.317,31.363-12.065a91.763,91.763,0,0,1,10.583-3.247,2.845,2.845,0,0,1,2.984.955,71.788,71.788,0,0,1,5.5,7.14q6.407,8.864,13.175,17.46a1.616,1.616,0,0,1,.449,1.007c-.759.666-1.683.4-2.55.434A12.344,12.344,0,0,1,98.357,158.183Z" transform="translate(-38.91 -90.402)" fill="#fff"/>
      <path id="Path_2" data-name="Path 2" d="M89.939,52.8c-.661,4.491-1.425,8.89-2.339,13.258-1.3,6.2-2.581,12.432-4.91,18.379a9.355,9.355,0,0,1-3.882,4.786A106.072,106.072,0,0,1,65.9,95.586C57.126,99.453,48.4,103.33,39.547,107c-.356.145-.816.625-1.136.217a1.337,1.337,0,0,1,.083-1.466,6.712,6.712,0,0,1,.867-1.11c15.7-17.037,31.327-34.115,47.2-50.976A4.734,4.734,0,0,1,88.628,52C89.33,51.817,90.073,51.735,89.939,52.8Z" transform="translate(-38.231 -51.889)" fill="#fff"/>
      <path id="Path_3" data-name="Path 3" d="M149.81,118.471c-3.072-5.163-6.164-10.284-9.21-15.452-2.2-3.733-4.352-7.491-6.319-11.358a8.834,8.834,0,0,1-1.033-4.822c.516-6.593,1.358-13.144,2.22-19.7q.836-6.381,1.7-12.757c.041-.289,0-.62.387-.857a10.3,10.3,0,0,1,1.74,4.337c1.518,6.3,2.468,12.716,3.8,19.05,2.731,12.907,5.379,25.865,8.09,38.792a7.321,7.321,0,0,1-.119,3.676C150.528,119.513,150.528,119.513,149.81,118.471Z" transform="translate(-84.184 -52.683)" fill="#fff"/>
    </g>
  </g>
</svg>
