<svg xmlns="http://www.w3.org/2000/svg" width="108" height="108" viewBox="0 0 108 108">
  <g id="loseweight_icon" transform="translate(-1008 -3652)">
    <text id="Icon" transform="translate(1043 3720)" fill="#fff" font-size="20" font-family="OpenSans-Regular, Open Sans"><tspan x="0" y="0">Icon</tspan></text>
    <circle id="Ellipse_3" data-name="Ellipse 3" cx="54" cy="54" r="54" transform="translate(1008 3652)" fill="#3e3e3e"/>
    <g id="_008-abs" data-name="008-abs" transform="translate(1027.723 3675.096)">
      <g id="Group_87" data-name="Group 87" transform="translate(12.725 0.002)">
        <g id="Group_86" data-name="Group 86" transform="translate(0)">
          <path id="Path_94" data-name="Path 94" d="M67.751,24.76c-1.764-2.631-3.158-4.709-3.158-7.094a11.128,11.128,0,0,1,1.832-6.38,12.921,12.921,0,0,0,2.091-7.353q0-.642-.011-1.277a.981.981,0,0,0-1.527-.8,13.21,13.21,0,0,1-7.291,2.075A12.171,12.171,0,0,1,50.613.316a1.014,1.014,0,0,0-1.468,0A12.169,12.169,0,0,1,40.07,3.933a13.512,13.512,0,0,1-6.4-1.537.981.981,0,0,0-1.446.852c0,.227,0,.456,0,.685a12.925,12.925,0,0,0,2.091,7.353,11.126,11.126,0,0,1,1.832,6.38c0,2.411-1.258,4.495-2.851,7.133-2.523,4.179-5.978,9.9-5.978,20.333a30.419,30.419,0,0,0,4.537,16.216.981.981,0,0,0,.831.46H48.9a.981.981,0,0,0,.981-.981V58.864h1.962v1.962a.981.981,0,0,0,.981.981H69.036a.978.978,0,0,0,.829-.459A30.413,30.413,0,0,0,74.4,45.132C74.4,34.676,70.558,28.944,67.751,24.76Zm.736,35.085H53.8V57.883a.981.981,0,0,0-.981-.981H48.9a.981.981,0,0,0-.981.981v1.962H33.234A28.548,28.548,0,0,1,29.28,45.131c0-9.885,3.158-15.116,5.7-19.319,1.681-2.785,3.133-5.19,3.133-8.147a12.925,12.925,0,0,0-2.091-7.353A11.09,11.09,0,0,1,34.209,4.8a15.888,15.888,0,0,0,5.861,1.09A14.55,14.55,0,0,0,49.88,2.366a14.552,14.552,0,0,0,9.809,3.528A15.716,15.716,0,0,0,66.55,4.362a11.082,11.082,0,0,1-1.827,5.951,12.921,12.921,0,0,0-2.091,7.353c0,2.982,1.618,5.394,3.491,8.186,2.815,4.2,6.319,9.42,6.319,19.279A28.542,28.542,0,0,1,68.487,59.845Z" transform="translate(-27.318 -0.002)" fill="#fff" stroke="#fff" stroke-width="0.5"/>
        </g>
      </g>
      <g id="Group_89" data-name="Group 89" transform="translate(13.503 32.811)">
        <g id="Group_88" data-name="Group 88">
          <path id="Path_95" data-name="Path 95" d="M75.448,118.324a30.075,30.075,0,0,0-1.047-3.512.982.982,0,0,0-1.256-.584,63.455,63.455,0,0,1-21.337,3.433,65.168,65.168,0,0,1-19.769-2.9.981.981,0,0,0-1.239.644c-.292.944-.546,1.924-.754,2.912a.981.981,0,0,0,.718,1.153c5.512,1.4,11.658,6.991,16.041,14.581a43.418,43.418,0,0,1,2.7,5.55.982.982,0,0,0,.911.616h4.752a.981.981,0,0,0,.911-.616,43.455,43.455,0,0,1,2.7-5.55c4.352-7.539,10.466-13.118,15.955-14.56A.981.981,0,0,0,75.448,118.324Zm-18.36,14.751a45.655,45.655,0,0,0-2.575,5.186H51.079a45.818,45.818,0,0,0-2.574-5.186c-4.4-7.624-10.584-13.364-16.337-15.235q.109-.456.233-.906a67.964,67.964,0,0,0,19.41,2.69A66.246,66.246,0,0,0,72.876,116.4q.238.728.437,1.474C67.593,119.786,61.455,125.51,57.088,133.075Z" transform="translate(-30.025 -114.169)" fill="#fff" stroke="#fff" stroke-width="0.5"/>
        </g>
      </g>
      <g id="Group_91" data-name="Group 91" transform="translate(53.924 16.685)">
        <g id="Group_90" data-name="Group 90">
          <path id="Path_96" data-name="Path 96" d="M180.489,58.053h-8.828a.981.981,0,0,0,0,1.962h8.828a.981.981,0,0,0,0-1.962Z" transform="translate(-170.68 -58.053)" fill="#fff" stroke="#fff" stroke-width="0.5"/>
        </g>
      </g>
      <g id="Group_93" data-name="Group 93" transform="translate(52.944 11.78)">
        <g id="Group_92" data-name="Group 92">
          <path id="Path_97" data-name="Path 97" d="M169.635,46.872l4.211-4.211a.981.981,0,0,0-1.387-1.387l-4.9,4.9a.981.981,0,0,0,0,1.387l4.9,4.9a.981.981,0,0,0,1.387-1.387Z" transform="translate(-167.267 -40.987)" fill="#fff" stroke="#fff" stroke-width="0.5"/>
        </g>
      </g>
      <g id="Group_95" data-name="Group 95" transform="translate(6.84 16.685)">
        <g id="Group_94" data-name="Group 94" transform="translate(0)">
          <path id="Path_98" data-name="Path 98" d="M16.649,58.053H7.821a.981.981,0,0,0,0,1.962h8.828a.981.981,0,1,0,0-1.962Z" transform="translate(-6.84 -58.053)" fill="#fff" stroke="#fff" stroke-width="0.5"/>
        </g>
      </g>
      <g id="Group_97" data-name="Group 97" transform="translate(11.745 11.78)">
        <g id="Group_96" data-name="Group 96">
          <path id="Path_99" data-name="Path 99" d="M30.485,46.178l-4.9-4.9a.981.981,0,0,0-1.387,1.387L28.4,46.871l-4.211,4.211A.981.981,0,1,0,25.58,52.47l4.905-4.9A.981.981,0,0,0,30.485,46.178Z" transform="translate(-23.906 -40.986)" fill="#fff" stroke="#fff" stroke-width="0.5"/>
        </g>
      </g>
    </g>
    <g id="Ellipse_42" data-name="Ellipse 42" transform="translate(1012 3654.501)" fill="none" stroke="#fff" stroke-width="3.5">
      <circle cx="51.5" cy="51.5" r="51.5" stroke="none"/>
      <circle cx="51.5" cy="51.5" r="49.75" fill="none"/>
    </g>
    <g id="Ellipse_43" data-name="Ellipse 43" transform="translate(1012 3654.501)" fill="none" stroke="#fff" stroke-width="3.5">
      <circle cx="51.5" cy="51.5" r="51.5" stroke="none"/>
      <circle cx="51.5" cy="51.5" r="49.75" fill="none"/>
    </g>
  </g>
</svg>
