<svg xmlns="http://www.w3.org/2000/svg" width="108" height="108" viewBox="0 0 108 108">
  <g id="satisfaction_icon" transform="translate(-3326 -6433)">
    <circle id="Ellipse_1" data-name="Ellipse 1" cx="54" cy="54" r="54" transform="translate(3326 6433)" fill="#3e3e3e"/>
    <g id="Ellipse_37" data-name="Ellipse 37" transform="translate(3329 6436)" fill="none" stroke="#fff" stroke-width="3.5">
      <circle cx="51.5" cy="51.5" r="51.5" stroke="none"/>
      <circle cx="51.5" cy="51.5" r="49.75" fill="none"/>
    </g>
    <g id="satisfaction" transform="translate(3350 6451.151)">
      <g id="Group_157" data-name="Group 157" transform="translate(0 0.849)">
        <path id="Path_145" data-name="Path 145" d="M295.359,16.595a3.81,3.81,0,0,0-2.112-6.5l-5.83-.847a1.816,1.816,0,0,1-1.367-.993l-2.607-5.283a3.81,3.81,0,0,0-6.833,0L274,8.256a1.816,1.816,0,0,1-1.367.993l-5.83.847a3.81,3.81,0,0,0-2.112,6.5l4.219,4.113a1.815,1.815,0,0,1,.522,1.607l-1,5.807a3.8,3.8,0,0,0,5.528,4.016l5.215-2.742a1.815,1.815,0,0,1,1.69,0l5.215,2.742a3.81,3.81,0,0,0,5.528-4.016l-.191-1.111a1,1,0,0,0-1.966.337l.191,1.112a1.816,1.816,0,0,1-2.634,1.914L281.8,27.631a3.808,3.808,0,0,0-3.546,0l-5.215,2.742a1.816,1.816,0,0,1-2.635-1.914l1-5.807a3.809,3.809,0,0,0-1.1-3.372l-4.219-4.113a1.816,1.816,0,0,1,1.006-3.1l5.83-.847a3.809,3.809,0,0,0,2.869-2.084L278.4,3.856a1.816,1.816,0,0,1,3.256,0l2.607,5.283a3.809,3.809,0,0,0,2.869,2.084l5.83.847a1.816,1.816,0,0,1,1.006,3.1l-4.219,4.113a3.809,3.809,0,0,0-1.1,3.372l.033.193a1,1,0,0,0,1.966-.337l-.033-.193a1.815,1.815,0,0,1,.522-1.607Z" transform="translate(-228.504 -0.849)" fill="#fff"/>
        <path id="Path_146" data-name="Path 146" d="M54.8,155.468a4.674,4.674,0,0,0-3.542-7.728l-15.176-.018c0-.006-.17-.493-.277-.721l0,0a2.806,2.806,0,0,1-.248-1.555c.222-1.7.277-3.47.322-4.89.114-3.643-.613-6.3-2.223-8.135a8.5,8.5,0,0,0-6.389-2.891h-.055a2.527,2.527,0,0,0-2.492,2.534v4.429c0,2.818-.456,6.739-2.63,9.416-2.306,2.84-4.3,2.816-7.594,2.775l-.343,0v-1.2a3.6,3.6,0,0,0-3.6-3.6H3.6a3.6,3.6,0,0,0-3.6,3.6v10.012a1,1,0,1,0,1.994,0V147.48a1.607,1.607,0,0,1,1.6-1.6h6.956a1.607,1.607,0,0,1,1.6,1.6V176.6a1.607,1.607,0,0,1-1.6,1.6H3.6a1.607,1.607,0,0,1-1.6-1.6V162.041a1,1,0,1,0-1.994,0V176.6a3.6,3.6,0,0,0,3.6,3.6h6.956a3.6,3.6,0,0,0,3.6-3.6V175.1H15.5a2.933,2.933,0,0,1,1.818.642c.134.107.291.241.472.4,1.247,1.064,3.568,3.046,6.89,3.046H49.157a4.675,4.675,0,0,0,3.633-7.62,4.672,4.672,0,0,0,2.012-7.469,4.678,4.678,0,0,0,0-8.624Zm-12.053-5.734h8.51a2.684,2.684,0,1,1,0,5.367h-8.51a2.684,2.684,0,1,1,0-5.367Zm-5.93,27.452H24.682a8.574,8.574,0,0,1-5.595-2.568c-.187-.16-.364-.311-.525-.439A4.935,4.935,0,0,0,15.5,173.1H14.154V150.67l.318,0c3.493.042,6.253.077,9.167-3.512,1.4-1.728,3.076-4.983,3.076-10.673V132.06a.529.529,0,0,1,.511-.54h.04a6.6,6.6,0,0,1,4.893,2.214c1.26,1.433,1.825,3.642,1.727,6.756-.043,1.377-.1,3.09-.306,4.694A4.8,4.8,0,0,0,34,147.843l.007.015.01.024,0,0a6.989,6.989,0,0,1,.6,2.382,6.66,6.66,0,0,1-.613,3.06,7.231,7.231,0,0,1-3.551,3.253,1,1,0,0,0-.507,1.316c.772,1.741,3.639-.876,4.347-1.61a7.708,7.708,0,0,0,1.533-2.147,8.625,8.625,0,0,0,.784-3.964c-.007-.148-.02-.3-.039-.46h2.363a4.673,4.673,0,0,0,2,7.014,4.664,4.664,0,0,0,0,6.1,4.673,4.673,0,0,0-1.819,7.254,4.672,4.672,0,0,0-2.3,7.1Zm12.339,0H40.641a2.684,2.684,0,0,1,.005-5.367h8.51a2.684,2.684,0,1,1,0,5.367Zm2.1-7.362h-8.51a2.684,2.684,0,1,1,0-5.367h8.51a2.684,2.684,0,1,1,0,5.367Zm1.729-7.361h-8.51a2.684,2.684,0,1,1,0-5.367h8.51a2.684,2.684,0,1,1,0,5.367Z" transform="translate(0 -112.419)" fill="#fff"/>
      </g>
    </g>
  </g>
</svg>
