<svg xmlns="http://www.w3.org/2000/svg" width="103" height="103" viewBox="0 0 103 103">
  <g id="twitter_icon" transform="translate(-4075 642)">
    <g id="_013-twitter" data-name="013-twitter" transform="translate(4096.338 -611.959)">
      <g id="Group_117" data-name="Group 117" transform="translate(0 0)">
        <path id="Path_118" data-name="Path 118" d="M59.98,52.881a1.346,1.346,0,0,0-1.229-.307L56.7,53.29a14.03,14.03,0,0,0,2.56-4.4,1.057,1.057,0,0,0-.2-1.229,1.089,1.089,0,0,0-1.229-.2,75,75,0,0,1-7.372,2.867c0,.1-.1,0-.2,0-1.638-.921-5.632-2.969-8.5-2.969a13.535,13.535,0,0,0-13.106,13.72v.41C18,59.434,12.163,56.362,5.815,49.707L4.791,48.683l-.614,1.229C.7,56.567,3.153,62.608,7.146,66.7a8.361,8.361,0,0,1-4.2-1.843,1.226,1.226,0,0,0-1.433-.1A1.26,1.26,0,0,0,1,66.089,20.093,20.093,0,0,0,9.911,77.147,8.211,8.211,0,0,1,5,75.919a1.443,1.443,0,0,0-1.433.1,1.12,1.12,0,0,0-.41,1.331C5,82.574,8.58,85.339,14.314,86.055c-2.969,1.741-6.86,3.174-12.9,3.277a1.458,1.458,0,0,0-1.331.921,1.424,1.424,0,0,0,.41,1.536C4.177,94.759,12.368,96.5,22.5,96.5c18.021,0,32.765-16.075,32.765-35.837v-.307a10.143,10.143,0,0,0,5.017-6.246A1.346,1.346,0,0,0,59.98,52.881Zm-6.143,5.836-.614.2v1.741C53.222,79.3,39.4,94.451,22.5,94.451c-9.318,0-15.563-1.536-18.942-3.174,7.065-.512,11.161-2.765,14.335-5.222l2.56-1.843H17.385c-5.836,0-9.42-1.638-11.468-5.529a16.117,16.117,0,0,0,5.939.512,19.724,19.724,0,0,1,2.457-.1l.307-2.048A18.5,18.5,0,0,1,3.87,67.727a15.436,15.436,0,0,0,6.348,1.126h3.174l-2.56-1.843c-2.15-1.536-8.5-6.963-5.427-14.744,6.553,6.451,12.8,9.42,24.062,11.468l1.229.2V61.072A11.483,11.483,0,0,1,41.754,49.4c2.355-.1,6.246,2.048,7.372,2.662a2.347,2.347,0,0,0,1.843.2c1.536-.512,3.379-1.229,5.427-2.048a16.365,16.365,0,0,1-3.788,4.3,1.232,1.232,0,0,0-.307,1.433,1.016,1.016,0,0,0,1.331.512l3.993-1.331A7.236,7.236,0,0,1,53.836,58.717Z" transform="translate(-0.001 -47.348)" fill="#35436a" stroke="#35436a" stroke-width="1"/>
      </g>
    </g>
    <g id="Ellipse_63" data-name="Ellipse 63" transform="translate(4075 -642)" fill="none" stroke="#35436a" stroke-width="3.5">
      <circle cx="51.5" cy="51.5" r="51.5" stroke="none"/>
      <circle cx="51.5" cy="51.5" r="49.75" fill="none"/>
    </g>
    <g id="Ellipse_64" data-name="Ellipse 64" transform="translate(4075 -642)" fill="none" stroke="#35436a" stroke-width="3.5">
      <circle cx="51.5" cy="51.5" r="51.5" stroke="none"/>
      <circle cx="51.5" cy="51.5" r="49.75" fill="none"/>
    </g>
  </g>
</svg>
