<svg xmlns="http://www.w3.org/2000/svg" width="103" height="103" viewBox="0 0 103 103">
  <g id="yt_icon" transform="translate(-3845 642)">
    <g id="_014-youtube" data-name="014-youtube" transform="translate(3866 -614)">
      <g id="Group_119" data-name="Group 119" transform="translate(0 0)">
        <g id="Group_118" data-name="Group 118">
          <path id="Path_119" data-name="Path 119" d="M58.706,68.677c0-.2-.6-4.631-2.517-6.746a8.762,8.762,0,0,0-6.142-2.92h-.4c-8.155-.6-20.338-.7-20.54-.7-.1,0-12.384.1-20.439.906h-.3a8.446,8.446,0,0,0-6.142,2.92C.208,64.247-.4,68.778-.4,68.979A100.731,100.731,0,0,0-1,79.249v4.732c0,5.034.6,10.169.6,10.27,0,.2.6,4.631,2.517,6.746a8.977,8.977,0,0,0,6.242,2.92,2.218,2.218,0,0,1,.806.1c4.631.4,19.331.6,19.936.6.1,0,12.384,0,20.54-.906h.3a8.446,8.446,0,0,0,6.142-2.92c2.014-2.114,2.618-6.645,2.618-6.847a100.73,100.73,0,0,0,.6-10.27V78.947C59.31,73.913,58.706,68.778,58.706,68.677Zm-1.41,15.2a96.845,96.845,0,0,1-.6,10.068c-.2,1.108-.806,4.329-2.114,5.739A6.592,6.592,0,0,1,49.745,102h-.3c-8.055.6-20.238.6-20.338.6s-15.2-.2-19.633-.7c-.3,0-.6-.1-.906-.1a6.977,6.977,0,0,1-5.034-2.215c-1.208-1.309-1.913-4.531-2.014-5.638,0-.1-.6-5.135-.6-10.068V79.149a96.845,96.845,0,0,1,.6-10.068c.1-1.108.806-4.329,2.014-5.739a6.773,6.773,0,0,1,4.934-2.316h.3c8.055-.6,20.238-.7,20.338-.7s12.284.1,20.338.7h.4a6.592,6.592,0,0,1,4.833,2.316c1.208,1.41,1.812,4.631,2.014,5.739a79.261,79.261,0,0,1,.6,10.068v4.732Z" transform="translate(1 -58.307)" fill="#35436a" stroke="#35436a" stroke-width="1"/>
          <path id="Path_120" data-name="Path 120" d="M206.52,170.754l-19.13-11.176a.914.914,0,0,0-1.007,0,1.057,1.057,0,0,0-.5.906v21.848a1.057,1.057,0,0,0,.5.906,1.309,1.309,0,0,0,1.007,0l19.13-10.672a1.067,1.067,0,0,0,0-1.812Zm-18.627,9.867V162.2L204,171.66Z" transform="translate(-163.83 -147.496)" fill="#35436a" stroke="#35436a" stroke-width="1"/>
        </g>
      </g>
    </g>
    <g id="Ellipse_66" data-name="Ellipse 66" transform="translate(3845 -642)" fill="none" stroke="#35436a" stroke-width="3.5">
      <circle cx="51.5" cy="51.5" r="51.5" stroke="none"/>
      <circle cx="51.5" cy="51.5" r="49.75" fill="none"/>
    </g>
  </g>
</svg>
